<?xml version="1.0" standalone="no"?><!DOCTYPE svg PUBLIC "-//W3C//DTD SVG 1.1//EN" "http://www.w3.org/Graphics/SVG/1.1/DTD/svg11.dtd"><svg t="1610116316068" class="icon" viewBox="0 0 1024 1024" version="1.1" xmlns="http://www.w3.org/2000/svg" p-id="7341" xmlns:xlink="http://www.w3.org/1999/xlink" width="32" height="32"><defs><style type="text/css"></style></defs><path d="M431.55 98.021h-255.335c-30.555 0-55.327 24.703-55.327 55.169v254.606c0 30.469 24.772 55.169 55.327 55.169h255.335c30.554 0 55.327-24.7 55.327-55.169v-254.606c0-30.466-24.773-55.169-55.327-55.169v0zM431.55 98.021z" p-id="7342"></path><path d="M431.55 513.227h-255.335c-30.555 0-55.327 24.704-55.327 55.169v254.607c0 30.474 24.772 55.169 55.327 55.169h255.335c30.554 0 55.327-24.7 55.327-55.169v-254.607c0-30.464-24.773-55.169-55.327-55.169v0zM431.55 513.227z" p-id="7343"></path><path d="M845.712 98.021h-255.337c-30.554 0-55.326 24.703-55.326 55.169v254.606c0 30.469 24.772 55.169 55.326 55.169h255.337c30.558 0 55.326-24.7 55.326-55.169v-254.606c0-30.466-24.768-55.169-55.326-55.169v0zM845.712 98.021z" p-id="7344"></path><path d="M845.712 513.227h-255.337c-30.554 0-55.326 24.704-55.326 55.169v254.607c0 30.474 24.772 55.169 55.326 55.169h255.337c30.558 0 55.326-24.7 55.326-55.169v-254.607c0-30.464-24.768-55.169-55.326-55.169v0zM845.712 513.227z" p-id="7345"></path></svg>