<?xml version="1.0" standalone="no"?><!DOCTYPE svg PUBLIC "-//W3C//DTD SVG 1.1//EN" "http://www.w3.org/Graphics/SVG/1.1/DTD/svg11.dtd"><svg t="1610126744381" class="icon" viewBox="0 0 1024 1024" version="1.1" xmlns="http://www.w3.org/2000/svg" p-id="7661" width="32" height="32" xmlns:xlink="http://www.w3.org/1999/xlink"><defs><style type="text/css"></style></defs><path d="M819.2 998.4H358.4c-42.496 0-76.8-34.304-76.8-76.8V128C281.6 85.504 315.904 51.2 358.4 51.2h460.8c42.496 0 76.8 34.304 76.8 76.8V921.6c0 42.496-34.304 76.8-76.8 76.8zM358.4 102.4c-14.336 0-25.6 11.264-25.6 25.6V921.6c0 14.336 11.264 25.6 25.6 25.6h460.8c14.336 0 25.6-11.264 25.6-25.6V128c0-14.336-11.264-25.6-25.6-25.6H358.4z" p-id="7662"></path><path d="M407.552 998.4H153.6c-42.496 0-76.8-34.304-76.8-76.8v-384C76.8 495.104 111.104 460.8 153.6 460.8h153.6v51.2H153.6c-14.336 0-25.6 11.264-25.6 25.6V921.6c0 14.336 11.264 25.6 25.6 25.6h253.952v51.2z" p-id="7663"></path><path d="M588.8 307.2h-153.6c-14.336 0-25.6-11.264-25.6-25.6s11.264-25.6 25.6-25.6h153.6c14.336 0 25.6 11.264 25.6 25.6s-11.264 25.6-25.6 25.6zM640 460.8h-204.8c-14.336 0-25.6-11.264-25.6-25.6s11.264-25.6 25.6-25.6h204.8c14.336 0 25.6 11.264 25.6 25.6s-11.264 25.6-25.6 25.6zM742.4 614.4h-307.2c-14.336 0-25.6-11.264-25.6-25.6s11.264-25.6 25.6-25.6h307.2c14.336 0 25.6 11.264 25.6 25.6s-11.264 25.6-25.6 25.6zM742.4 768h-307.2c-14.336 0-25.6-11.264-25.6-25.6s11.264-25.6 25.6-25.6h307.2c14.336 0 25.6 11.264 25.6 25.6s-11.264 25.6-25.6 25.6z" p-id="7664"></path></svg>